# xmcd CD database file
#
# Track frame offsets:
#	150
#	19368
#	38898
#
# Disc length: 797 seconds
#
# Revision: 2
# Processed by: cddbd v1.5.2PL0 Copyright (c) Steve Scherf et al.
# Submitted via: CDex 1.70beta2
#
DISCID=1f031b03
DTITLE=剛力彩芽 - 友達より大事な人
DYEAR=2013
DGENRE=JPop
TTITLE0=友達より大事な人
TTITLE1=Girls' Talkin'
TTITLE2=Shining Star
EXTD=YEAR: 2013
EXTT0=
EXTT1=
EXTT2=
PLAYORDER=
